<?xml version="1.0" encoding="UTF-8"?>
<svg xmlns="http://www.w3.org/2000/svg" xmlns:xlink="http://www.w3.org/1999/xlink" width="16px" height="16px" viewBox="0 0 16 16" version="1.1">
<g id="surface1">
<path style="fill-rule:nonzero;fill:rgb(0%,0%,0%);fill-opacity:1;stroke-width:9.78978;stroke-linecap:butt;stroke-linejoin:miter;stroke:rgb(0%,0%,0%);stroke-opacity:1;stroke-miterlimit:4;" d="M 488.772702 80.313543 C 476.709199 88.56104 466.245957 98.901184 457.752267 110.84159 C 445.688764 127.952068 438.302946 147.893776 430.794032 167.58929 C 423.285117 187.161707 415.406911 206.980319 402.604827 223.598409 C 386.356028 244.524892 363.459993 259.050334 340.194666 271.852418 C 317.052437 284.654503 293.048529 296.348714 272.860627 313.459192 C 252.795822 330.446573 237.039411 352.604027 228.791914 377.469613 C 220.544418 402.3352 220.05203 429.90892 228.668817 454.774506 C 240.239932 487.641396 267.07507 513.737952 298.095505 529.494363 C 329.11594 545.250775 364.321671 551.52872 399.035015 553.375174 C 438.672237 555.714017 479.90972 552.144205 515.115452 533.802757 C 541.827493 519.8928 563.861849 497.981541 579.987552 472.500469 C 596.113254 447.142495 606.699593 418.460902 613.100635 389.040728 C 622.20981 347.926342 623.686974 305.457889 629.472531 263.728019 C 634.642604 226.060348 643.259391 187.777192 635.750476 150.601909 C 632.673052 135.707177 627.133689 121.181735 618.639998 108.502748 C 610.269405 95.82376 598.944484 84.991228 585.650012 77.728507 C 569.401213 68.742428 550.321183 65.295713 531.979736 66.895974 C 516.838809 68.126944 501.944077 72.804628 488.772702 80.313543 Z M 488.772702 80.313543 " transform="matrix(0.0317331,0,0,0.0317331,-5.662624,-1.845474)"/>
</g>
</svg>
